<svg xmlns="http://www.w3.org/2000/svg" width="151.805" height="65.688" viewBox="0 0 151.805 65.688">
  <g id="sst-logo-footer" transform="translate(-36.6 -46.4)">
    <path id="Path_48897" data-name="Path 48897" d="M97.452,46.431l-33.635.186s-8.525-.186-11.408,6.634a128.856,128.856,0,0,0-4.681,13.113s-1.674,7.626,7.471,8.99l14.849,2.48s2.263.372,1.519,2.17L70.2,83.289a2.8,2.8,0,0,1-2.666,2.139c-2.17,0-26.629.062-26.629.062L36.6,96.681H74.822a7.852,7.852,0,0,0,7.006-4.867c1.922-4.867,5.332-14.6,5.332-14.6s1.364-8.153-6.324-9.362L66.329,65.434s-3.379-.527-2.821-2.17a33.069,33.069,0,0,1,1.612-3.689s.589-1.829,2.232-1.829c3.906,0,25.854-.031,25.854-.031L97.514,46.4Z" transform="translate(0 0)" fill="#1a1178"/>
    <path id="Path_48898" data-name="Path 48898" d="M250.552,46.431l-33.635.186s-8.525-.186-11.408,6.634a128.872,128.872,0,0,0-4.681,13.113s-1.674,7.626,7.471,8.99l14.849,2.48s2.263.372,1.519,2.17L223.3,83.289a2.8,2.8,0,0,1-2.666,2.139c-2.17,0-26.629.062-26.629.062L189.7,96.681h38.222a7.852,7.852,0,0,0,7.006-4.867c1.922-4.867,5.332-14.6,5.332-14.6s1.364-8.153-6.324-9.362l-14.508-2.418s-3.379-.527-2.821-2.17a33.065,33.065,0,0,1,1.612-3.689s.589-1.829,2.232-1.829c3.906,0,25.854-.031,25.854-.031L250.614,46.4Z" transform="translate(-105.64 0)" fill="#1a1178"/>
    <path id="Path_48899" data-name="Path 48899" d="M370.177,46.5,365.651,58l7.688.155L358.8,97.091l15.9.031,13.981-38.1,7.874-.031L400.928,46.5Z" transform="translate(-222.32 -0.069)" fill="#1a1178"/>
    <path id="Path_48900" data-name="Path 48900" d="M488.765,59.024H485.2L489.509,46.5h3.534Z" transform="translate(-309.536 -0.069)" fill="#19388f"/>
    <g id="Group_86884" data-name="Group 86884" transform="translate(37.375 98.975)">
      <path id="Path_48901" data-name="Path 48901" d="M46.168,221.091l-1.395.868a2.307,2.307,0,0,0-.744-.9,1.763,1.763,0,0,0-.961-.248,1.992,1.992,0,0,0-1.209.434,1.324,1.324,0,0,0-.465,1.023,1.847,1.847,0,0,0,1.24,1.395l1.147.465a4.8,4.8,0,0,1,2.046,1.426,3.232,3.232,0,0,1,.651,2.046,3.993,3.993,0,0,1-1.054,2.666,3.551,3.551,0,0,1-2.635,1.054,3.478,3.478,0,0,1-2.48-.9A4.105,4.105,0,0,1,39.1,227.88l1.767-.4a3.43,3.43,0,0,0,.4,1.426,1.827,1.827,0,0,0,1.55.775,1.545,1.545,0,0,0,1.333-.558,1.868,1.868,0,0,0,.527-1.395c0-.558-.031-.434-.093-.62a1.723,1.723,0,0,0-.279-.527,2.265,2.265,0,0,0-.5-.434,5.375,5.375,0,0,0-.744-.4l-1.116-.465c-1.581-.682-2.356-1.674-2.356-2.976a2.331,2.331,0,0,1,.992-2.2,3.56,3.56,0,0,1,2.449-.9,3.837,3.837,0,0,1,3.1,1.984Z" transform="translate(-39.1 -218.208)" fill="#c2000a"/>
      <path id="Path_48902" data-name="Path 48902" d="M67.5,236.844a3.694,3.694,0,0,1,1.116-2.728,3.892,3.892,0,0,1,5.487.031,3.906,3.906,0,0,1-2.759,6.7,3.607,3.607,0,0,1-2.728-1.147,3.856,3.856,0,0,1-1.116-2.821Zm1.7,0a2.487,2.487,0,0,0,.589,1.767,2.245,2.245,0,0,0,3.162,0,2.853,2.853,0,0,0,0-3.472,2.057,2.057,0,0,0-1.581-.651,1.99,1.99,0,0,0-1.55.651,2.38,2.38,0,0,0-.589,1.7Z" transform="translate(-58.696 -227.73)" fill="#c2000a"/>
      <path id="Path_48903" data-name="Path 48903" d="M98.1,233.117h1.674v.682a3.2,3.2,0,0,1,.837-.713,2.07,2.07,0,0,1,.93-.186,2.294,2.294,0,0,1,1.953,1.085,2.461,2.461,0,0,1,2.139-1.085c1.643,0,2.449,1.023,2.449,3.038v4.588h-1.674V236.4a3.547,3.547,0,0,0-.248-1.519.908.908,0,0,0-.868-.434,1.209,1.209,0,0,0-1.023.527,3.4,3.4,0,0,0-.31,1.7v3.844h-1.674v-4.092c0-1.333-.372-1.984-1.116-1.984s-.806.186-1.023.527a3.477,3.477,0,0,0-.31,1.7v3.844H98.162v-7.409Z" transform="translate(-79.81 -227.661)" fill="#c2000a"/>
      <path id="Path_48904" data-name="Path 48904" d="M138.674,216.031v6.293a3.046,3.046,0,0,1,2.263-1.054,3.338,3.338,0,0,1,2.449,1.116,4.047,4.047,0,0,1,.961,2.759,4.232,4.232,0,0,1-.992,2.821,3.1,3.1,0,0,1-2.449,1.116,2.849,2.849,0,0,1-2.232-.992v.775H137V216h1.674Zm3.968,9.207a2.6,2.6,0,0,0-.558-1.736,1.76,1.76,0,0,0-1.426-.682,1.951,1.951,0,0,0-1.488.651,2.51,2.51,0,0,0-.558,1.7,2.6,2.6,0,0,0,.558,1.736,1.861,1.861,0,0,0,1.488.651,1.842,1.842,0,0,0,1.457-.651,2.5,2.5,0,0,0,.589-1.674Z" transform="translate(-106.651 -216)" fill="#c2000a"/>
      <path id="Path_48905" data-name="Path 48905" d="M165.3,236.844a3.694,3.694,0,0,1,1.116-2.728,3.892,3.892,0,0,1,5.487.031,3.906,3.906,0,0,1-2.759,6.7,3.607,3.607,0,0,1-2.728-1.147,3.856,3.856,0,0,1-1.116-2.821Zm1.7,0a2.487,2.487,0,0,0,.589,1.767,2.245,2.245,0,0,0,3.162,0,2.853,2.853,0,0,0,0-3.472,2.057,2.057,0,0,0-1.581-.651,1.991,1.991,0,0,0-1.55.651,2.38,2.38,0,0,0-.589,1.7Z" transform="translate(-126.179 -227.73)" fill="#c2000a"/>
      <path id="Path_48906" data-name="Path 48906" d="M194.9,236.844a3.694,3.694,0,0,1,1.116-2.728,3.892,3.892,0,0,1,5.487.031,3.906,3.906,0,0,1-2.759,6.7,3.607,3.607,0,0,1-2.728-1.147,3.856,3.856,0,0,1-1.116-2.821Zm1.7,0a2.487,2.487,0,0,0,.589,1.767,2.245,2.245,0,0,0,3.162,0,2.853,2.853,0,0,0,0-3.472,2.057,2.057,0,0,0-1.581-.651,1.99,1.99,0,0,0-1.55.651,2.38,2.38,0,0,0-.589,1.7Z" transform="translate(-146.603 -227.73)" fill="#c2000a"/>
      <path id="Path_48907" data-name="Path 48907" d="M225.5,233.117h1.674v.682a2.736,2.736,0,0,1,3.968-.093,3.4,3.4,0,0,1,.62,2.263v4.557h-1.674v-4.154a2.579,2.579,0,0,0-.31-1.519,1.208,1.208,0,0,0-1.054-.434,1.325,1.325,0,0,0-1.178.558,4.133,4.133,0,0,0-.341,1.953v3.565h-1.674v-7.409Z" transform="translate(-167.717 -227.661)" fill="#c2000a"/>
      <path id="Path_48908" data-name="Path 48908" d="M273.868,221.091l-1.395.868a2.307,2.307,0,0,0-.744-.9,1.763,1.763,0,0,0-.961-.248,1.992,1.992,0,0,0-1.209.434,1.324,1.324,0,0,0-.465,1.023,1.847,1.847,0,0,0,1.24,1.395l1.147.465a4.8,4.8,0,0,1,2.046,1.426,3.232,3.232,0,0,1,.651,2.046,3.993,3.993,0,0,1-1.054,2.666,3.551,3.551,0,0,1-2.635,1.054,3.478,3.478,0,0,1-2.48-.9,4.105,4.105,0,0,1-1.209-2.542l1.767-.4a3.429,3.429,0,0,0,.4,1.426,1.827,1.827,0,0,0,1.55.775,1.545,1.545,0,0,0,1.333-.558,2,2,0,0,0,.527-1.395c0-.558,0-.434-.093-.62a2.834,2.834,0,0,0-.279-.527,2.267,2.267,0,0,0-.5-.434,5.379,5.379,0,0,0-.744-.4l-1.116-.465c-1.581-.682-2.356-1.674-2.356-2.976a2.331,2.331,0,0,1,.992-2.2,3.56,3.56,0,0,1,2.449-.9,3.837,3.837,0,0,1,3.1,1.984Z" transform="translate(-196.214 -218.208)" fill="#c2000a"/>
      <path id="Path_48909" data-name="Path 48909" d="M295.4,221.216a1.028,1.028,0,0,1,.31-.775,1.051,1.051,0,0,1,1.55,0,1.028,1.028,0,0,1,.31.775,1.1,1.1,0,0,1-.31.806,1.051,1.051,0,0,1-1.55,0A1.1,1.1,0,0,1,295.4,221.216Zm1.922,3.069v7.409h-1.674v-7.409Z" transform="translate(-215.948 -218.829)" fill="#c2000a"/>
      <path id="Path_48910" data-name="Path 48910" d="M313.073,233.117h1.674v7.409h-1.674v-.775a3.2,3.2,0,0,1-2.232.992,3.455,3.455,0,0,1-2.48-1.116,4.155,4.155,0,0,1-.961-2.821,4.074,4.074,0,0,1,.961-2.79,3.1,3.1,0,0,1,2.449-1.116,2.777,2.777,0,0,1,2.263,1.054v-.837Zm-3.968,3.689a2.6,2.6,0,0,0,.558,1.736,1.777,1.777,0,0,0,1.457.682,1.905,1.905,0,0,0,1.488-.651,2.652,2.652,0,0,0,.558-1.736,2.511,2.511,0,0,0-.558-1.705,1.861,1.861,0,0,0-1.488-.651,1.777,1.777,0,0,0-1.457.682,2.6,2.6,0,0,0-.558,1.674Z" transform="translate(-224.228 -227.661)" fill="#c2000a"/>
      <path id="Path_48911" data-name="Path 48911" d="M341.012,234.25l-1.395.744c-.217-.465-.5-.682-.806-.682s-.279.062-.4.155a.476.476,0,0,0-.155.4c0,.279.31.558.961.837a5.689,5.689,0,0,1,1.8,1.085,1.888,1.888,0,0,1,.465,1.333,2.49,2.49,0,0,1-2.6,2.48,2.636,2.636,0,0,1-2.573-1.829l1.426-.682a2.461,2.461,0,0,0,.465.682,1.056,1.056,0,0,0,.744.279.731.731,0,0,0,.837-.806c0-.527-.217-.589-.651-.868-.155-.093-.341-.155-.5-.248s-.341-.155-.527-.248a2.9,2.9,0,0,1-1.023-.744,1.877,1.877,0,0,1-.372-1.209,2.442,2.442,0,0,1,.651-1.612,2.2,2.2,0,0,1,1.612-.62,2.229,2.229,0,0,1,2.077,1.457Z" transform="translate(-244.169 -227.523)" fill="#c2000a"/>
      <path id="Path_48912" data-name="Path 48912" d="M359.574,233.6v4.247c0,1.24.465,1.829,1.426,1.829s1.426-.62,1.426-1.829V233.6H364.1v4.309a4.679,4.679,0,0,1-.217,1.55,2.552,2.552,0,0,1-.713,1.054,3.127,3.127,0,0,1-2.17.744,3.046,3.046,0,0,1-2.139-.744,2.737,2.737,0,0,1-.744-1.054,4.722,4.722,0,0,1-.217-1.55V233.6Z" transform="translate(-259.074 -228.144)" fill="#c2000a"/>
      <path id="Path_48913" data-name="Path 48913" d="M384.6,233.117h1.674v.682a2.737,2.737,0,0,1,3.968-.093,3.4,3.4,0,0,1,.62,2.263v4.557h-1.674v-4.154a2.579,2.579,0,0,0-.31-1.519,1.208,1.208,0,0,0-1.054-.434,1.325,1.325,0,0,0-1.178.558,4.134,4.134,0,0,0-.341,1.953v3.565h-1.674v-7.409Z" transform="translate(-277.497 -227.661)" fill="#c2000a"/>
      <path id="Path_48914" data-name="Path 48914" d="M428.271,221.274v10.075h-1.736V221.274H423.9V219.6h7.006v1.674Z" transform="translate(-304.614 -218.484)" fill="#c2000a"/>
      <path id="Path_48915" data-name="Path 48915" d="M454.313,237.309h-5.177a2.23,2.23,0,0,0,.589,1.457,1.776,1.776,0,0,0,1.3.527,1.349,1.349,0,0,0,1.023-.31,5.434,5.434,0,0,0,.93-1.116l1.426.806a6.182,6.182,0,0,1-.682.992,3.945,3.945,0,0,1-.775.682,2.519,2.519,0,0,1-.9.372,3.784,3.784,0,0,1-1.054.124,3.344,3.344,0,0,1-2.6-1.054,4.653,4.653,0,0,1-.031-5.7A3.28,3.28,0,0,1,450.9,233a3.212,3.212,0,0,1,2.542,1.054,4.134,4.134,0,0,1,.93,2.883v.4Zm-1.736-1.395a1.631,1.631,0,0,0-1.674-1.364c-.868,0-.4.031-.558.093a1.571,1.571,0,0,0-.5.279,1.261,1.261,0,0,0-.372.434,3.042,3.042,0,0,0-.248.558Z" transform="translate(-320.829 -227.73)" fill="#c2000a"/>
      <path id="Path_48916" data-name="Path 48916" d="M480.414,233.458v2.263a4.268,4.268,0,0,0-1.023-.992,1.982,1.982,0,0,0-1.054-.279,2.068,2.068,0,0,0-1.581.682,2.506,2.506,0,0,0-.62,1.7,2.431,2.431,0,0,0,.589,1.7,2.063,2.063,0,0,0,1.55.682,1.535,1.535,0,0,0,1.054-.279,4.252,4.252,0,0,0,1.054-.992v2.263a4.194,4.194,0,0,1-2.046.527,3.906,3.906,0,0,1-2.821-1.116,3.785,3.785,0,0,1-1.116-2.79,3.694,3.694,0,0,1,1.147-2.79,3.811,3.811,0,0,1,2.821-1.147,3.2,3.2,0,0,1,2.015.527Z" transform="translate(-339.459 -227.661)" fill="#c2000a"/>
      <path id="Path_48917" data-name="Path 48917" d="M500.3,216.031h1.674v6.045a2.8,2.8,0,0,1,1.984-.837,2.617,2.617,0,0,1,1.953.806,3.463,3.463,0,0,1,.62,2.263v4.557h-1.674v-4.371a2.124,2.124,0,0,0-.31-1.3,1.145,1.145,0,0,0-.992-.4,1.519,1.519,0,0,0-1.24.558,3.719,3.719,0,0,0-.341,1.922v3.6H500.3V216Z" transform="translate(-357.33 -216)" fill="#c2000a"/>
    </g>
    <path id="Path_48918" data-name="Path 48918" d="M504.534,59.024H501L505.278,46.5h3.565Z" transform="translate(-320.438 -0.069)" fill="#4fa1c9"/>
  </g>
</svg>
