<?xml version="1.0" standalone="no"?>
<!DOCTYPE svg PUBLIC "-//W3C//DTD SVG 20010904//EN"
 "http://www.w3.org/TR/2001/REC-SVG-20010904/DTD/svg10.dtd">
<svg version="1.0" xmlns="http://www.w3.org/2000/svg"
 width="800.000000pt" height="800.000000pt" viewBox="0 0 800.000000 800.000000"
 preserveAspectRatio="xMidYMid meet">

<g transform="translate(0.000000,800.000000) scale(0.100000,-0.100000)"
fill="#1b3a34" stroke="none">
<path d="M780 7993 c-121 -12 -270 -66 -380 -137 -92 -60 -149 -113 -220 -207
-67 -89 -109 -174 -148 -297 l-27 -87 0 -3260 0 -3260 22 -80 c86 -314 300
-532 619 -632 l89 -28 3265 0 3265 0 89 28 c322 101 535 321 622 643 18 67 19
173 19 3329 l0 3260 -27 87 c-39 123 -81 208 -148 297 -124 164 -267 259 -485
325 l-70 21 -3225 1 c-1774 0 -3241 -1 -3260 -3z m5600 -3993 l0 -1960 -2380
0 -2380 0 0 795 0 795 790 0 790 0 0 535 0 535 793 2 792 3 3 628 2 627 795 0
795 0 0 -1960z"/>
</g>
</svg>
